<?xml version="1.0" encoding="iso-8859-1"?>
<!-- Generator: Adobe Illustrator 19.0.0, SVG Export Plug-In . SVG Version: 6.00 Build 0)  -->
<svg version="1.1" id="Capa_1" xmlns="http://www.w3.org/2000/svg" xmlns:xlink="http://www.w3.org/1999/xlink" x="0px" y="0px"
	 viewBox="0 0 511.993 511.993" style="enable-background:new 0 0 511.993 511.993;" xml:space="preserve">
<path style="fill:#313638;" d="M154.783,328.439l-0.224,1.6l-113.488-4.608l-11.264-0.656c-11.392-0.656-21.392-7.792-25.728-18.352
	l0,0c25.904-32.192,52.656-53.152,80.768-55.888C127.279,249.175,160.719,286.391,154.783,328.439z"/>
<path style="fill:#59A5E0;" d="M366.031,198.135c0,0-16.864-26.848-29.52-35.664c-12.656-8.816-77.84-19.936-144.176-12.272
	s-94.704,37.968-128.448,68.256c-11.152,10-24.56,23.856-37.504,37.936h8.24c32.48-27.488,102.032-8.88,114.4,4.24
	c12.656,13.424,23.392,69.408,23.392,69.408h175.616c23.776-50.608,62.496-77.456,99.312-76.688
	c36.816,0.768,54.992,31.632,54.992,31.632C484.847,202.727,366.031,198.135,366.031,198.135z"/>
<path style="fill:#DEE4E9;" d="M486.255,238.519v42.224c6.976-4.448,11.6-12.24,11.6-21.104
	C497.855,250.743,493.231,242.951,486.255,238.519z"/>
<path style="fill:#65B1EF;" d="M488.415,284.647c-13.824,0-25.024-11.2-25.024-25.024c0-13.824,11.2-25.024,25.024-25.024"/>
<g>
	<path style="fill:#3E4347;" d="M228.015,168.919v39.232c0,4.528-3.664,8.192-8.192,8.192h-79.376
		c-18.656,0-25.072-24.72-8.832-33.888c16.784-9.472,36.896-16.656,63.728-19.76c7.84-0.912,15.888-1.552,24.096-1.952
		C224.111,160.519,228.015,164.247,228.015,168.919z"/>
	<path style="fill:#3E4347;" d="M354.895,210.423c-0.784,3.504-4.016,5.92-7.6,5.92H245.391c-4.528,0-8.192-3.664-8.192-8.192
		v-39.664c0-4.56,3.712-8.256,8.272-8.192c35.136,0.496,74.208,7.136,82.512,12.928c8.192,5.712,19.744,21.92,25.888,31.44
		C354.959,206.343,355.343,208.423,354.895,210.423z"/>
</g>
<g>
	<path style="fill:#65B1EF;" d="M504.047,318.647c-0.56-32.768-27.12-58.032-58.832-58.032c-32.512,0-58.848,26.352-58.848,58.864
		v0.224c0,5.696-4.608,10.304-10.304,10.304h-28.048c6.496-55.056,36.16-87.6,84.64-90.112c47.264,0,77.136,42.656,79.328,78.432
		C512.319,323.703,504.143,324.071,504.047,318.647z"/>
	<path style="fill:#65B1EF;" d="M172.399,330.039h-17.84c12.08-66.544-80.096-97.088-110.432-37.056
		c-15.536,30.736-49.6,19.984-43.376,21.328c10.784-84.752,85.76-101.52,129.84-76.688
		C176.223,263.319,172.399,330.039,172.399,330.039z"/>
</g>
<path style="fill:#313638;" d="M504.047,318.055l-117.696,1.44c0-32.512,26.352-58.864,58.848-58.864
	C477.231,260.631,503.279,286.199,504.047,318.055z"/>
<circle style="fill:#3E4347;" cx="445.215" cy="319.495" r="44.864"/>
<circle style="fill:#FFFFFF;" cx="445.215" cy="319.495" r="25.424"/>
<circle style="fill:#BBC7D1;" cx="445.215" cy="319.495" r="13.056"/>
<circle style="fill:#3E4347;" cx="96.639" cy="319.495" r="44.864"/>
<circle style="fill:#FFFFFF;" cx="96.639" cy="319.495" r="25.424"/>
<circle style="fill:#BBC7D1;" cx="96.639" cy="319.495" r="13.056"/>
<path style="fill:#3E4347;" d="M264.607,242.487c0,1.952-1.584,3.52-3.52,3.52h-14.432c-1.952,0-3.52-1.584-3.52-3.52
	s1.568-3.52,3.52-3.52h14.432C263.039,238.967,264.607,240.551,264.607,242.487z"/>
<g>
	<path style="fill:#5A5F63;" d="M253.679,216.343h9.376l48.688-48.688c-2.4-0.56-5.008-1.088-7.76-1.616L253.679,216.343z"/>
	<path style="fill:#5A5F63;" d="M245.391,216.343h1.68l51.312-51.312c-7.76-1.296-16.464-2.416-25.504-3.248l-35.664,35.664v10.704
		C237.199,212.679,240.863,216.343,245.391,216.343z"/>
</g>
</svg>
