<svg id="Layer_1" enable-background="new 0 0 512 512" height="512" viewBox="0 0 512 512" width="512" xmlns="http://www.w3.org/2000/svg"><g clip-rule="evenodd" fill-rule="evenodd"><path d="m15.81 236.324c55.033-93.581 144.835-149.448 240.191-149.448s185.159 55.867 240.191 149.448c7.47 12.691 7.47 26.667 0 39.355-55.044 93.581-144.835 149.448-240.191 149.448s-185.148-55.867-240.192-149.448c-7.474-12.688-7.474-26.664.001-39.355z" fill="#7ed8f6"/><path d="m256.001 86.876c95.356 0 185.159 55.867 240.191 149.448 7.47 12.691 7.47 26.667 0 39.355-55.044 93.581-144.835 149.448-240.191 149.448 0-99.935 0-238.316 0-338.251z" fill="#6aa9ff"/><path d="m256.001 163.012c51.27 0 92.986 41.716 92.986 92.992 0 51.269-41.716 92.986-92.986 92.986s-92.986-41.717-92.986-92.986c.001-51.276 41.717-92.992 92.986-92.992z" fill="#eceff1"/><path d="m256.001 348.99v-185.978c51.27 0 92.986 41.716 92.986 92.992.001 51.269-41.716 92.986-92.986 92.986z" fill="#c4cccf"/><path d="m37.08 273.937c22.339 37.983 51.589 69.998 85.099 93.261l47.277-47.277c-13.248-17.89-21.089-40.007-21.089-63.916 0-59.35 48.282-107.636 107.632-107.636 23.919 0 46.027 7.845 63.921 21.088l41.658-41.667c-33.288-17.22-68.718-25.934-105.578-25.934-86.911 0-168.751 50.919-218.92 136.212-6.812 11.568-6.812 24.306 0 35.869zm282.468-58.859c7.629 11.804 12.082 25.853 12.082 40.927 0 41.701-33.93 75.631-75.631 75.631-15.069 0-29.118-4.449-40.932-12.082zm-127.102 81.849c-7.629-11.809-12.077-25.849-12.077-40.922 0-41.705 33.93-75.636 75.631-75.636 15.068 0 29.118 4.449 40.932 12.082zm-182.955-6.765c-12.582-21.39-12.582-46.928 0-68.318 26.91-45.739 63.1-83.816 104.678-110.123 43.29-27.387 92.332-41.866 141.831-41.866 44.71 0 89.109 11.841 129.178 34.336l52.712-52.703c6.251-6.251 16.38-6.251 22.622 0 6.246 6.251 6.246 16.38 0 22.627l-117.974 117.969c13.252 17.89 21.088 40.002 21.088 63.921 0 59.345-48.277 107.632-107.627 107.632-23.91 0-46.031-7.845-63.922-21.088l-117.967 117.967c-3.118 3.123-7.209 4.685-11.309 4.685-4.095 0-8.19-1.562-11.313-4.685-6.251-6.251-6.251-16.38 0-22.626l47.744-47.749c-35.322-25.57-66.101-59.793-89.741-99.979zm452.667-123.686c15.012 16.748 28.59 35.374 40.351 55.368 12.582 21.39 12.582 46.928 0 68.318-26.91 45.739-63.1 83.821-104.678 110.123-43.281 27.386-92.332 41.865-141.831 41.865-17.739 0-35.53-1.845-52.891-5.477-8.648-1.812-14.191-10.289-12.38-18.937 1.812-8.652 10.289-14.196 18.937-12.384 15.215 3.184 30.793 4.798 46.333 4.798 86.911 0 168.76-50.919 218.92-136.212 6.808-11.563 6.808-24.301 0-35.869-10.681-18.163-22.99-35.067-36.591-50.23-5.897-6.581-5.341-16.696 1.241-22.594 6.581-5.903 16.691-5.346 22.589 1.231z"/></g></svg>