<svg height="512" viewBox="0 0 345 345" width="512" xmlns="http://www.w3.org/2000/svg"><g id="Layer_4" data-name="Layer 4"><path d="m112.24 342.29a26.2 26.2 0 0 1 -17.32-45.87c19.07-16.78 22.56-28.33 27-43 4.73-15.65 10.63-35.14 34.19-54.28a26.2 26.2 0 1 1 33 40.67c-11.1 9-13.22 16-17.07 28.77-5.17 17.08-12.24 40.47-42.52 67.13a26.1 26.1 0 0 1 -17.28 6.58z" fill="#db2852"/><path d="m177.76 253.07c-2.15 4.06-3.57 8.52-5.26 14.09l-.45 1.47c-1.16 3.84-2.42 8-4 12.42-5.5 15.33-15 34-38.51 54.71a26.16 26.16 0 0 1 -21.75 6.15 26.08 26.08 0 0 0 12.84-6.15c30.28-26.65 37.35-50 42.52-67.13l.45-1.47a89.76 89.76 0 0 1 4.46-12.48c.24-.53.5-1 .77-1.56 1.22 0 2.45.06 3.68.06q2.63 0 5.25-.11z" fill="#d31543"/><path d="m232.76 342.29a26.1 26.1 0 0 1 -17.3-6.53c-30.28-26.65-37.35-50-42.52-67.13-3.85-12.74-6-19.76-17.07-28.77a26.2 26.2 0 0 1 33-40.67c23.57 19.14 29.46 38.62 34.19 54.28 4.42 14.62 7.92 26.18 27 43a26.2 26.2 0 0 1 -17.32 45.87z" fill="#db2852"/><path d="m68.71 282.95c-18 0-37.32-7.31-57.71-21.85a26.2 26.2 0 1 1 30.4-42.67c12.6 8.95 23.39 13.27 29.73 11.87 8.22-1.82 16.19-15.87 22-26.12 3.8-6.69 7.38-13 11.88-18.23 12.73-14.79 28.62-15 39.24-10.24a26.2 26.2 0 0 1 -2.32 48.74c-1.07 1.81-2.23 3.86-3.22 5.59-4.63 8.16-10.39 18.31-18.33 27.54-10.94 12.71-23.7 20.74-37.92 23.89a63.45 63.45 0 0 1 -13.75 1.48z" fill="#db2852"/><path d="m276.29 282.95a63.43 63.43 0 0 1 -13.74-1.49c-14.22-3.15-27-11.18-37.92-23.89-7.95-9.22-13.71-19.38-18.33-27.54-1-1.73-2.15-3.78-3.22-5.59a26.2 26.2 0 0 1 -2.32-48.74c10.62-4.75 26.5-4.55 39.24 10.24 4.5 5.22 8.08 11.54 11.88 18.23 5.82 10.26 13.79 24.3 22 26.12 6.33 1.4 17.17-2.92 29.73-11.87a26.2 26.2 0 1 1 30.39 42.68c-20.39 14.53-39.74 21.85-57.71 21.85z" fill="#db2852"/><circle cx="172.5" cy="127.95" fill="#db2852" r="125.23"/><path d="m334 261.1c-20.39 14.54-39.75 21.85-57.72 21.85q-2.23 0-4.43-.15c16.69-1.11 34.53-8.36 53.24-21.7a26.2 26.2 0 0 0 -10.75-47.15 26.2 26.2 0 0 1 19.66 47.15z" fill="#d31543"/><path d="m297.73 127.95a124.84 124.84 0 0 1 -37.73 89.63q-2.58 2.52-5.3 4.88a125.26 125.26 0 0 1 -34.61 21.37q-2.2.9-4.44 1.72-1.73.64-3.48 1.22t-3.79 1.2a124.77 124.77 0 0 1 -30.58 5.09q-2.62.11-5.26.11c-1.23 0-2.46 0-3.68-.06l-1.58-.05h-1l1-.05 1.77-.12q4.79-.34 9.48-1a124 124 0 0 0 27.47-7.45q2.37-.94 4.7-2 1.16-.51 2.29-1c1.77-.83 3.53-1.7 5.25-2.61a125.52 125.52 0 0 0 31.37-23.44q2.77-2.84 5.35-5.84a125.23 125.23 0 0 0 -88.75-206.68q3.13-.16 6.29-.16a125.23 125.23 0 0 1 125.23 125.24z" fill="#d31543"/><path d="m252.44 333.4a26.22 26.22 0 0 1 -24.13 8.5 26.19 26.19 0 0 0 12.87-45.48c-17.46-15.37-21.87-26.36-25.88-39.34-.37-1.19-.73-2.39-1.11-3.63-.65-2.16-1.33-4.39-2.06-6.69q1.75-.58 3.48-1.22a119.62 119.62 0 0 0 8.59 11.53 98.35 98.35 0 0 0 4.81 13c3.79 8.1 9.63 16.29 21.07 26.36a26.2 26.2 0 0 1 2.36 36.97z" fill="#d31543"/><path d="m124.95 243.83c-1.15 3.33-2.12 6.55-3 9.63-.37 1.23-.74 2.44-1.11 3.63l-.41.49a82.71 82.71 0 0 1 -13.3 12.49 64.43 64.43 0 0 1 -24.62 11.4 63.51 63.51 0 0 1 -13.74 1.49c-1.48 0-3 0-4.47-.15a62.86 62.86 0 0 0 9.31-1.34c14.22-3.15 27-11.19 37.93-23.89l.41-.49a118.75 118.75 0 0 0 7.9-10.48q1.31-1.95 2.54-3.89 1.23.57 2.56 1.11z" fill="#d31543"/><g fill="#ffa5b1"><ellipse cx="322.1" cy="255.27" rx="10.22" ry="7.34" transform="matrix(.884 -.468 .468 .884 -82 180.34)"/><ellipse cx="290.66" cy="270.47" rx="10.22" ry="7.34" transform="matrix(.979 -.206 .206 .979 -49.45 65.63)"/><ellipse cx="219.4" cy="324.44" rx="7.34" ry="10.22" transform="matrix(.602 -.799 .799 .602 -171.74 304.34)"/><ellipse cx="194.77" cy="293.52" rx="7.34" ry="10.22" transform="matrix(.866 -.5 .5 .866 -120.67 136.71)"/><ellipse cx="22.91" cy="255.27" rx="7.34" ry="10.22" transform="matrix(.468 -.884 .884 .468 -213.43 156.09)"/><ellipse cx="54.34" cy="270.47" rx="7.34" ry="10.22" transform="matrix(.206 -.979 .979 .206 -221.52 267.97)"/><ellipse cx="125.61" cy="324.44" rx="10.22" ry="7.34" transform="matrix(.799 -.602 .602 .799 -169.99 140.97)"/><ellipse cx="150.23" cy="293.52" rx="10.22" ry="7.34" transform="matrix(.5 -.866 .866 .5 -179.08 276.87)"/></g></g><g id="Emoticons"><circle id="path941-4-21-1-4-6-3" cx="189.69" cy="120.01" fill="#fff" r="43.43"/><circle id="path941-8-5-3-2-52-0-0" cx="185.49" cy="120.01" r="32.54"/><path d="m216.39 73.61a4.07 4.07 0 0 1 -2.87-1.18 25.3 25.3 0 0 0 -22.79-6.37 4.07 4.07 0 0 1 -2-7.91 33.4 33.4 0 0 1 30.48 8.48 4.07 4.07 0 0 1 -2.87 7z"/><path d="m68.61 73.61a4.07 4.07 0 0 1 -2.86-7 33.4 33.4 0 0 1 30.48-8.48 4.07 4.07 0 0 1 -2 7.91 25.29 25.29 0 0 0 -22.79 6.37 4.07 4.07 0 0 1 -2.83 1.2z"/><path d="m162.67 114a4.08 4.08 0 0 1 -3.74-5.68c3.16-7.39 10.48-14 17.81-16.06a4.07 4.07 0 1 1 2.21 7.84c-5 1.4-10.35 6.31-12.54 11.42a4.08 4.08 0 0 1 -3.74 2.48z" fill="#fff"/><circle id="path941-4-21-1-4-6-3-9" cx="95.31" cy="120.01" fill="#fff" r="43.43"/><circle id="path941-8-5-3-2-52-0-0-6" cx="99.51" cy="120.01" r="32.54"/><path d="m76.7 114a4.08 4.08 0 0 1 -3.7-5.71c3.16-7.39 10.48-14 17.81-16.06a4.07 4.07 0 0 1 2.19 7.83c-5 1.4-10.35 6.31-12.54 11.42a4.07 4.07 0 0 1 -3.76 2.52z" fill="#fff"/><path d="m142.5 189.7c-10.14 0-20.27-2-27.11-5.92a4.07 4.07 0 1 1 4.07-7.06c11.19 6.46 34.87 6.46 46.07 0a4.07 4.07 0 1 1 4.07 7.06c-6.83 3.95-16.97 5.92-27.1 5.92z"/></g></svg>