<svg clip-rule="evenodd" fill-rule="evenodd" height="512" stroke-linejoin="round" stroke-miterlimit="2" viewBox="0 0 48 48" width="512" xmlns="http://www.w3.org/2000/svg"><g transform="translate(-360 -216)"><g id="FLAT-LINE" transform="scale(1.5)"><g transform="scale(.667)"><path d="m397 220.5v34c0 .828-.672 1.5-1.5 1.5h-17.5l-14.883-36.082c.227-.539.761-.918 1.383-.918h31c.828 0 1.5.672 1.5 1.5z" fill="#e0e0e0"/></g><g transform="matrix(-.667 0 0 .667 508 -192)"><path d="m399 508.387c0-.321-.155-.623-.415-.811-.261-.188-.596-.239-.901-.137-2.944.981-10.01 3.336-12.658 4.219-.613.204-1.026.777-1.026 1.423v33.838c0 .482.232.935.623 1.217s.894.358 1.351.206c3.091-1.03 8.992-2.997 11.658-3.886.817-.272 1.368-1.037 1.368-1.898 0-5.923 0-28.349 0-34.171z" fill="#f9a824"/></g><g transform="matrix(0 .667 -.667 0 481.986 -44)"><path d="m304 325.636-4.364 4.364v-5.657l6.364-6.364 6.364 6.364v5.657l-4.364-4.364v14.343c0 .552-.448 1-1 1-.611 0-1.389 0-2 0-.552 0-1-.448-1-1 0-3.406 0-14.343 0-14.343z" fill="#8bc349"/></g><g transform="scale(.667)"><path d="m379 255v-25c0-.552-.448-1-1-1s-1 .448-1 1v28.919c0 .161-.077.312-.208.405-.13.094-.298.12-.45.069l-11.658-3.886c-.409-.136-.684-.518-.684-.949v-1.558c0-.552-.448-1-1-1s-1 .448-1 1v1.558c0 1.292.826 2.438 2.051 2.847 2.667.888 8.568 2.855 11.658 3.886.763.254 1.601.126 2.253-.344s1.038-1.225 1.038-2.028v-1.919h16.5c1.381 0 2.5-1.119 2.5-2.5v-7.136h.636c.265 0 .52-.105.707-.293l6.364-6.364c.391-.39.391-1.024 0-1.414l-6.364-6.364c-.187-.188-.442-.293-.707-.293h-.636v-12.136c0-1.381-1.119-2.5-2.5-2.5-.407 0-1.5 0-1.5 0-.552 0-1 .448-1 1s.448 1 1 1h1.5c.276 0 .5.224.5.5v12.136h-3.021c-.404 0-.769.244-.924.617-.154.374-.069.804.217 1.09l2.657 2.657h-11.929c-1.105 0-2 .895-2 2v2c0 1.105.895 2 2 2h11.929s-2.657 2.657-2.657 2.657c-.286.286-.371.716-.217 1.09.155.373.52.617.924.617h3.021v7.136c0 .276-.224.5-.5.5zm-16.787-35.51c-.138.274-.213.581-.213.897v26.613c0 .552.448 1 1 1s1-.448 1-1v-26.613s12.658 4.22 12.658 4.22c.204.068.342.259.342.474v1.919c0 .552.448 1 1 1s1-.448 1-1c0 0 0-1.425 0-1.919 0-1.076-.689-2.031-1.709-2.372l-8.129-2.709h21.838c.552 0 1-.448 1-1s-.448-1-1-1c-6.744 0-22.801 0-26.5 0-1.021 0-1.899.612-2.287 1.49zm35.13 21.51h-14.343v-2h14.343c.405 0 .769-.244.924-.617.155-.374.069-.804-.217-1.09l-2.657-2.657h2.829s5.364 5.364 5.364 5.364-5.364 5.364-5.364 5.364h-2.829s2.657-2.657 2.657-2.657c.286-.286.372-.716.217-1.09-.155-.373-.519-.617-.924-.617z"/></g><g transform="matrix(.667 0 0 .667 232.667 146.667)"><circle cx="14" cy="30" r="1"/></g></g></g></svg>