<svg id="Layer_1" enable-background="new 0 0 512 512" height="512" viewBox="0 0 512 512" width="512" xmlns="http://www.w3.org/2000/svg"><g clip-rule="evenodd" fill-rule="evenodd"><path d="m15.809 236.323c55.033-93.58 144.836-149.448 240.192-149.448s185.158 55.867 240.191 149.448c7.469 12.691 7.469 26.667 0 39.354-55.044 93.581-144.835 149.448-240.191 149.448s-185.148-55.866-240.192-149.447c-7.474-12.687-7.474-26.663 0-39.355z" fill="#7ed8f6"/><path d="m256.001 86.875c95.356 0 185.158 55.867 240.191 149.448 7.469 12.691 7.469 26.667 0 39.354-55.044 93.581-144.835 149.448-240.191 149.448 0-99.933 0-238.315 0-338.25z" fill="#6aa9ff"/><path d="m256.001 163.011c51.27 0 92.986 41.716 92.986 92.992 0 51.269-41.716 92.986-92.986 92.986s-92.986-41.717-92.986-92.986c0-51.275 41.716-92.992 92.986-92.992z" fill="#eceff1"/><path d="m256.001 348.989v-185.978c51.27 0 92.986 41.716 92.986 92.992 0 51.27-41.717 92.986-92.986 92.986z" fill="#c4cccf"/><path d="m256 180.369c41.7 0 75.631 33.93 75.631 75.636 0 41.701-33.93 75.631-75.631 75.631s-75.631-33.93-75.631-75.631c.001-41.705 33.931-75.636 75.631-75.636zm0 183.268c59.35 0 107.631-48.286 107.631-107.632 0-59.35-48.282-107.636-107.631-107.636-59.35 0-107.632 48.286-107.632 107.636.001 59.345 48.282 107.632 107.632 107.632zm-218.919-125.569c-6.813 11.568-6.813 24.306 0 35.869 50.169 85.293 132.008 136.212 218.919 136.212s168.75-50.919 218.919-136.212c6.808-11.563 6.808-24.301 0-35.869-50.159-85.293-132.008-136.212-218.919-136.212s-168.76 50.919-218.919 136.212zm77.088 162.217c43.29 27.387 92.332 41.861 141.831 41.861s98.55-14.474 141.831-41.861c41.578-26.302 77.768-64.384 104.678-110.123 12.578-21.39 12.578-46.928 0-68.318-26.91-45.739-63.101-83.816-104.678-110.123-43.281-27.387-92.332-41.866-141.831-41.866s-98.541 14.479-141.831 41.866c-41.578 26.306-77.768 64.384-104.678 110.123-12.583 21.39-12.583 46.928 0 68.318 26.91 45.739 63.1 83.821 104.678 110.123z"/></g></svg>