<?xml version="1.0" encoding="UTF-8" standalone="no"?>
<!-- Created with Inkscape (http://www.inkscape.org/) -->

<svg
   version="1.1"
   id="svg3720"
   xml:space="preserve"
   width="682.66669"
   height="682.66669"
   viewBox="0 0 682.66669 682.66669"
   xmlns="http://www.w3.org/2000/svg"
   xmlns:svg="http://www.w3.org/2000/svg"><defs
     id="defs3724"><clipPath
       clipPathUnits="userSpaceOnUse"
       id="clipPath3734"><path
         d="M 0,512 H 512 V 0 H 0 Z"
         id="path3732" /></clipPath></defs><g
     id="g3726"
     transform="matrix(1.3333333,0,0,-1.3333333,0,682.66667)"><g
       id="g3728"><g
         id="g3730"
         clip-path="url(#clipPath3734)"><g
           id="g3736"
           transform="translate(423.647,42.209)"><path
             d="m 0,0 h -300.585 c -9.741,0 -17.638,7.897 -17.638,17.638 v 427.015 c 0,9.741 7.897,17.638 17.638,17.638 H 0 c 9.742,0 17.638,-7.897 17.638,-17.638 V 17.638 C 17.638,7.897 9.742,0 0,0"
             style="fill:#3c87d0;fill-opacity:1;fill-rule:nonzero;stroke:none"
             id="path3738" /></g><g
           id="g3740"
           transform="translate(388.938,7.5)"><path
             d="m 0,0 h -300.585 c -9.742,0 -17.638,7.897 -17.638,17.638 v 427.015 c 0,9.741 7.896,17.638 17.638,17.638 H 0 c 9.741,0 17.638,-7.897 17.638,-17.638 V 17.638 C 17.638,7.897 9.741,0 0,0"
             style="fill:#c8effe;fill-opacity:1;fill-rule:nonzero;stroke:none"
             id="path3742" /></g><g
           id="g3744"
           transform="translate(388.938,469.791)"><path
             d="m 0,0 h -36.863 c 9.741,0 17.638,-7.897 17.638,-17.638 v -427.015 c 0,-9.741 -7.897,-17.638 -17.638,-17.638 H 0 c 9.741,0 17.638,7.897 17.638,17.638 V -17.638 C 17.638,-7.897 9.741,0 0,0"
             style="fill:#a8d3d8;fill-opacity:1;fill-rule:nonzero;stroke:none"
             id="path3746" /></g><g
           id="g3748"
           transform="translate(362.7373,389.6943)"><path
             d="m 0,0 h -96.966 c -3.853,0 -6.976,3.124 -6.976,6.977 0,3.852 3.123,6.976 6.976,6.976 H 0 c 3.853,0 6.976,-3.124 6.976,-6.976 C 6.976,3.124 3.853,0 0,0"
             style="fill:#3e5959;fill-opacity:1;fill-rule:nonzero;stroke:none"
             id="path3750" /></g><g
           id="g3752"
           transform="translate(362.7373,357.0601)"><path
             d="m 0,0 h -96.966 c -3.853,0 -6.976,3.124 -6.976,6.976 0,3.853 3.123,6.976 6.976,6.976 H 0 c 3.853,0 6.976,-3.123 6.976,-6.976 C 6.976,3.124 3.853,0 0,0"
             style="fill:#3e5959;fill-opacity:1;fill-rule:nonzero;stroke:none"
             id="path3754" /></g><g
           id="g3756"
           transform="translate(362.7373,324.4253)"><path
             d="m 0,0 h -96.966 c -3.853,0 -6.976,3.124 -6.976,6.977 0,3.852 3.123,6.976 6.976,6.976 H 0 c 3.853,0 6.976,-3.124 6.976,-6.976 C 6.976,3.124 3.853,0 0,0"
             style="fill:#3e5959;fill-opacity:1;fill-rule:nonzero;stroke:none"
             id="path3758" /></g><g
           id="g3760"
           transform="translate(362.7373,142.2949)"><path
             d="m 0,0 h -90.141 c -3.853,0 -6.976,3.123 -6.976,6.976 0,3.853 3.123,6.976 6.976,6.976 H 0 c 3.853,0 6.976,-3.123 6.976,-6.976 C 6.976,3.123 3.853,0 0,0"
             style="fill:#3e5959;fill-opacity:1;fill-rule:nonzero;stroke:none"
             id="path3762" /></g><g
           id="g3764"
           transform="translate(211.5195,210.3682)"><path
             d="m 0,0 h -96.966 c -3.853,0 -6.976,3.124 -6.976,6.977 0,3.852 3.123,6.976 6.976,6.976 H 0 c 3.853,0 6.976,-3.124 6.976,-6.976 C 6.976,3.124 3.853,0 0,0"
             style="fill:#3e5959;fill-opacity:1;fill-rule:nonzero;stroke:none"
             id="path3766" /></g><g
           id="g3768"
           transform="translate(211.5195,243.0029)"><path
             d="m 0,0 h -96.966 c -3.853,0 -6.976,3.124 -6.976,6.976 0,3.853 3.123,6.976 6.976,6.976 H 0 c 3.853,0 6.976,-3.123 6.976,-6.976 C 6.976,3.124 3.853,0 0,0"
             style="fill:#3e5959;fill-opacity:1;fill-rule:nonzero;stroke:none"
             id="path3770" /></g><g
           id="g3772"
           transform="translate(172.3823,431.8057)"><path
             d="M 0,0 V -64.801 H 64.801 C 64.801,-29.013 35.789,0 0,0"
             style="fill:#ee6161;fill-opacity:1;fill-rule:nonzero;stroke:none"
             id="path3774" /></g><g
           id="g3776"
           transform="translate(172.3823,431.8057)"><path
             d="m 0,0 c -35.789,0 -64.801,-29.013 -64.801,-64.801 0,-35.789 29.012,-64.802 64.801,-64.802 35.789,0 64.801,29.013 64.801,64.802 H 0 Z"
             style="fill:#fea95c;fill-opacity:1;fill-rule:nonzero;stroke:none"
             id="path3778" /></g><g
           id="g3780"
           transform="translate(365.0625,195.5249)"><path
             d="m 0,0 h -116.495 c -2.569,0 -4.651,2.083 -4.651,4.651 v 66.972 c 0,2.568 2.082,4.65 4.651,4.65 H 0 c 2.569,0 4.651,-2.082 4.651,-4.65 V 4.651 C 4.651,2.083 2.569,0 0,0"
             style="fill:#ee6161;fill-opacity:1;fill-rule:nonzero;stroke:none"
             id="path3782" /></g><g
           id="g3784"
           transform="translate(132.6069,57.3823)"><path
             d="m 0,0 h -20.379 c -2.568,0 -4.65,2.083 -4.65,4.651 v 101.734 c 0,2.569 2.082,4.651 4.65,4.651 H 0 c 2.568,0 4.651,-2.082 4.651,-4.651 V 4.651 C 4.651,2.083 2.568,0 0,0"
             style="fill:#fe7701;fill-opacity:1;fill-rule:nonzero;stroke:none"
             id="path3786" /></g><g
           id="g3788"
           transform="translate(187.9771,57.3823)"><path
             d="m 0,0 h -20.378 c -2.569,0 -4.651,2.083 -4.651,4.651 v 75.041 c 0,2.569 2.082,4.651 4.651,4.651 H 0 c 2.569,0 4.651,-2.082 4.651,-4.651 V 4.651 C 4.651,2.083 2.569,0 0,0"
             style="fill:#fe9738;fill-opacity:1;fill-rule:nonzero;stroke:none"
             id="path3790" /></g><g
           id="g3792"
           transform="translate(243.3477,57.3823)"><path
             d="m 0,0 h -20.379 c -2.568,0 -4.651,2.083 -4.651,4.651 v 41.785 c 0,2.568 2.083,4.65 4.651,4.65 H 0 c 2.568,0 4.651,-2.082 4.651,-4.65 V 4.651 C 4.651,2.083 2.568,0 0,0"
             style="fill:#fea95c;fill-opacity:1;fill-rule:nonzero;stroke:none"
             id="path3794" /></g><g
           id="g3796"
           transform="translate(362.7373,108.0181)"><path
             d="m 0,0 h -90.141 c -3.853,0 -6.976,3.123 -6.976,6.976 0,3.853 3.123,6.976 6.976,6.976 H 0 c 3.853,0 6.976,-3.123 6.976,-6.976 C 6.976,3.123 3.853,0 0,0"
             style="fill:#3e5959;fill-opacity:1;fill-rule:nonzero;stroke:none"
             id="path3798" /></g><g
           id="g3800"
           transform="translate(362.7373,73.7412)"><path
             d="m 0,0 h -90.141 c -3.853,0 -6.976,3.123 -6.976,6.976 0,3.853 3.123,6.976 6.976,6.976 H 0 c 3.853,0 6.976,-3.123 6.976,-6.976 C 6.976,3.123 3.853,0 0,0"
             style="fill:#3e5959;fill-opacity:1;fill-rule:nonzero;stroke:none"
             id="path3802" /></g><g
           id="g3804"
           transform="translate(265.7715,389.6943)"><path
             d="m 0,0 h 96.966 c 3.853,0 6.976,3.124 6.976,6.977 0,3.852 -3.123,6.976 -6.976,6.976 H 0 c -3.853,0 -6.977,-3.124 -6.977,-6.976 C -6.977,3.124 -3.853,0 0,0"
             style="fill:#000000;fill-opacity:1;fill-rule:nonzero;stroke:none"
             id="path3806" /></g><g
           id="g3808"
           transform="translate(258.7949,364.0361)"><path
             d="m 0,0 c 0,-3.853 3.124,-6.976 6.977,-6.976 h 96.965 c 3.853,0 6.976,3.123 6.976,6.976 0,3.853 -3.123,6.977 -6.976,6.977 H 6.977 C 3.124,6.977 0,3.853 0,0"
             style="fill:#000000;fill-opacity:1;fill-rule:nonzero;stroke:none"
             id="path3810" /></g><g
           id="g3812"
           transform="translate(265.7715,324.4253)"><path
             d="m 0,0 h 96.966 c 3.853,0 6.976,3.124 6.976,6.977 0,3.852 -3.123,6.976 -6.976,6.976 H 0 c -3.853,0 -6.977,-3.124 -6.977,-6.976 C -6.977,3.124 -3.853,0 0,0"
             style="fill:#000000;fill-opacity:1;fill-rule:nonzero;stroke:none"
             id="path3814" /></g><g
           id="g3816"
           transform="translate(369.7134,149.271)"><path
             d="m 0,0 c 0,3.853 -3.123,6.976 -6.976,6.976 h -90.141 c -3.853,0 -6.976,-3.123 -6.976,-6.976 0,-3.853 3.123,-6.976 6.976,-6.976 H -6.976 C -3.123,-6.976 0,-3.853 0,0"
             style="fill:#000000;fill-opacity:1;fill-rule:nonzero;stroke:none"
             id="path3818" /></g><g
           id="g3820"
           transform="translate(218.4956,217.3447)"><path
             d="m 0,0 c 0,3.853 -3.123,6.976 -6.976,6.976 h -96.966 c -3.853,0 -6.976,-3.123 -6.976,-6.976 0,-3.853 3.123,-6.977 6.976,-6.977 H -6.976 C -3.123,-6.977 0,-3.853 0,0"
             style="fill:#000000;fill-opacity:1;fill-rule:nonzero;stroke:none"
             id="path3822" /></g><g
           id="g3824"
           transform="translate(114.5537,243.0029)"><path
             d="m 0,0 h 96.966 c 3.853,0 6.976,3.123 6.976,6.976 0,3.853 -3.123,6.976 -6.976,6.976 H 0 c -3.853,0 -6.977,-3.123 -6.977,-6.976 C -6.977,3.123 -3.853,0 0,0"
             style="fill:#000000;fill-opacity:1;fill-rule:nonzero;stroke:none"
             id="path3826" /></g><g
           id="g3828"
           transform="translate(179.8823,374.5044)"><path
             d="M 0,0 V 49.313 C 25.61,45.95 45.95,25.61 49.313,0 Z m -7.5,-64.801 c -31.596,0 -57.301,25.705 -57.301,57.301 0,29.054 21.736,53.127 49.801,56.813 V -7.5 c 0,-4.142 3.358,-7.5 7.5,-7.5 H 49.313 C 45.627,-43.065 21.554,-64.801 -7.5,-64.801 m 0,129.602 c -39.867,0 -72.301,-32.434 -72.301,-72.301 0,-39.867 32.434,-72.301 72.301,-72.301 39.867,0 72.301,32.434 72.301,72.301 0,39.867 -32.434,72.301 -72.301,72.301"
             style="fill:#000000;fill-opacity:1;fill-rule:nonzero;stroke:none"
             id="path3830" /></g><path
           d="M 251.417,264.298 H 362.214 V 203.025 H 251.417 Z m -15,2.849 v -66.971 c 0,-6.7 5.45,-12.151 12.15,-12.151 h 116.495 c 6.701,0 12.151,5.451 12.151,12.151 v 66.971 c 0,6.701 -5.45,12.151 -12.151,12.151 H 248.567 c -6.7,0 -12.15,-5.45 -12.15,-12.151"
           style="fill:#000000;fill-opacity:1;fill-rule:nonzero;stroke:none"
           id="path3832" /><path
           d="m 115.078,160.918 h 14.68 V 64.882 h -14.68 z m -15,-98.885 c 0,-6.7 5.45,-12.151 12.15,-12.151 h 20.379 c 6.7,0 12.151,5.451 12.151,12.151 v 101.735 c 0,6.699 -5.451,12.15 -12.151,12.15 h -20.379 c -6.7,0 -12.15,-5.451 -12.15,-12.15 z"
           style="fill:#000000;fill-opacity:1;fill-rule:nonzero;stroke:none"
           id="path3834" /><path
           d="m 185.128,64.882 h -14.68 v 69.343 h 14.68 z m -17.529,84.343 c -6.701,0 -12.151,-5.451 -12.151,-12.15 V 62.033 c 0,-6.7 5.45,-12.151 12.151,-12.151 h 20.378 c 6.7,0 12.151,5.451 12.151,12.151 v 75.042 c 0,6.699 -5.451,12.15 -12.151,12.15 z"
           style="fill:#000000;fill-opacity:1;fill-rule:nonzero;stroke:none"
           id="path3836" /><path
           d="m 225.818,100.969 h 14.681 V 64.883 h -14.681 z m -2.849,-51.087 h 20.379 c 6.7,0 12.151,5.451 12.151,12.151 v 41.785 c 0,6.7 -5.451,12.151 -12.151,12.151 h -20.379 c -6.7,0 -12.151,-5.451 -12.151,-12.151 V 62.033 c 0,-6.7 5.451,-12.151 12.151,-12.151"
           style="fill:#000000;fill-opacity:1;fill-rule:nonzero;stroke:none"
           id="path3838" /><g
           id="g3840"
           transform="translate(362.7373,121.9702)"><path
             d="m 0,0 h -90.141 c -3.853,0 -6.976,-3.123 -6.976,-6.976 0,-3.853 3.123,-6.976 6.976,-6.976 H 0 c 3.853,0 6.976,3.123 6.976,6.976 C 6.976,-3.123 3.853,0 0,0"
             style="fill:#000000;fill-opacity:1;fill-rule:nonzero;stroke:none"
             id="path3842" /></g><g
           id="g3844"
           transform="translate(362.7373,87.6934)"><path
             d="m 0,0 h -90.141 c -3.853,0 -6.976,-3.123 -6.976,-6.976 0,-3.853 3.123,-6.976 6.976,-6.976 H 0 c 3.853,0 6.976,3.123 6.976,6.976 C 6.976,-3.123 3.853,0 0,0"
             style="fill:#000000;fill-opacity:1;fill-rule:nonzero;stroke:none"
             id="path3846" /></g><g
           id="g3848"
           transform="translate(441.2852,419.0112)"><path
             d="m 0,0 c 4.142,0 7.5,3.358 7.5,7.5 v 60.351 c 0,13.861 -11.277,25.138 -25.138,25.138 h -300.585 c -13.861,0 -25.138,-11.277 -25.138,-25.138 V 58.28 h -9.571 c -13.861,0 -25.138,-11.277 -25.138,-25.138 v -321.317 c 0,-4.142 3.358,-7.5 7.5,-7.5 4.142,0 7.5,3.358 7.5,7.5 V 33.142 c 0,5.59 4.548,10.138 10.138,10.138 h 300.585 c 5.59,0 10.138,-4.548 10.138,-10.138 v -427.015 c 0,-5.59 -4.548,-10.138 -10.138,-10.138 h -300.585 c -5.59,0 -10.138,4.548 -10.138,10.138 v 70.698 c 0,4.142 -3.358,7.5 -7.5,7.5 -4.142,0 -7.5,-3.358 -7.5,-7.5 v -70.698 c 0,-13.861 11.277,-25.138 25.138,-25.138 h 300.585 c 13.861,0 25.138,11.277 25.138,25.138 v 9.571 h 9.571 c 13.861,0 25.138,11.277 25.138,25.138 V -27.5 c 0,4.142 -3.358,7.5 -7.5,7.5 -4.142,0 -7.5,-3.358 -7.5,-7.5 v -331.664 c 0,-5.59 -4.548,-10.138 -10.138,-10.138 h -9.571 V 33.142 c 0,13.861 -11.277,25.138 -25.138,25.138 h -276.014 v 9.571 c 0,5.59 4.548,10.138 10.138,10.138 h 300.585 c 5.59,0 10.138,-4.548 10.138,-10.138 L -7.5,7.5 C -7.5,3.358 -4.142,0 0,0"
             style="fill:#000000;fill-opacity:1;fill-rule:nonzero;stroke:none"
             id="path3850" /></g></g></g></g></svg>
