<?xml version="1.0" encoding="UTF-8"?>
<svg xmlns="http://www.w3.org/2000/svg" id="Icons" viewBox="0 0 74 74" width="512" height="512"><path d="M48.5,72h-23a5.006,5.006,0,0,1-5-5V7a5.006,5.006,0,0,1,5-5h23a5.006,5.006,0,0,1,5,5V67A5.006,5.006,0,0,1,48.5,72ZM25.5,4a3,3,0,0,0-3,3V67a3,3,0,0,0,3,3h23a3,3,0,0,0,3-3V7a3,3,0,0,0-3-3Z"/><path d="M41.5,72h-9a1,1,0,0,1-1-1V3a1,1,0,0,1,1-1h9a1,1,0,0,1,1,1V71A1,1,0,0,1,41.5,72Zm-8-2h7V4h-7Z"/><path d="M41.5,15a1,1,0,0,1-.342-1.94l11-4a1,1,0,0,1,.684,1.88l-11,4A1,1,0,0,1,41.5,15Z"/><path d="M41.5,25a1,1,0,0,1-.342-1.94l11-4a1,1,0,0,1,.684,1.88l-11,4A1,1,0,0,1,41.5,25Z"/><path d="M41.5,35a1,1,0,0,1-.342-1.94l11-4a1,1,0,0,1,.684,1.88l-11,4A1,1,0,0,1,41.5,35Z"/><path d="M41.5,45a1,1,0,0,1-.342-1.94l11-4a1,1,0,0,1,.684,1.88l-11,4A1,1,0,0,1,41.5,45Z"/><path d="M41.5,55a1,1,0,0,1-.342-1.94l11-4a1,1,0,0,1,.684,1.88l-11,4A1,1,0,0,1,41.5,55Z"/><path d="M41.5,65a1,1,0,0,1-.342-1.94l11-4a1,1,0,0,1,.684,1.88l-11,4A1,1,0,0,1,41.5,65Z"/><path d="M32.5,15a1,1,0,0,1-.342-.06l-11-4a1,1,0,0,1,.684-1.88l11,4A1,1,0,0,1,32.5,15Z"/><path d="M32.5,25a1,1,0,0,1-.342-.06l-11-4a1,1,0,0,1,.684-1.88l11,4A1,1,0,0,1,32.5,25Z"/><path d="M32.5,35a1,1,0,0,1-.342-.06l-11-4a1,1,0,0,1,.684-1.88l11,4A1,1,0,0,1,32.5,35Z"/><path d="M32.5,45a1,1,0,0,1-.342-.06l-11-4a1,1,0,0,1,.684-1.88l11,4A1,1,0,0,1,32.5,45Z"/><path d="M32.5,55a1,1,0,0,1-.342-.06l-11-4a1,1,0,0,1,.684-1.88l11,4A1,1,0,0,1,32.5,55Z"/><path d="M32.5,65a1,1,0,0,1-.342-.06l-11-4a1,1,0,0,1,.684-1.88l11,4A1,1,0,0,1,32.5,65Z"/></svg>
