<?xml version="1.0" encoding="utf-8"?>
<!-- Generator: Adobe Illustrator 25.2.1, SVG Export Plug-In . SVG Version: 6.00 Build 0)  -->
<svg version="1.1" xmlns="http://www.w3.org/2000/svg" xmlns:xlink="http://www.w3.org/1999/xlink" x="0px" y="0px"
	 viewBox="0 0 1000 661.6" style="enable-background:new 0 0 1000 661.6;" xml:space="preserve">
<style type="text/css">
	.st0{fill:#2260AB;}
	.st1{fill:#575757;}
	.st2{fill:#FFFFFF;}
	.st3{fill:#595959;}
</style>
<g id="Layer_1">
</g>
<g id="Artwork">
	<g>
		<path class="st0" d="M913.8,529.3h-428c-22.2,0-40.3-18-40.3-40.3V61c0-22.2,18-40.3,40.3-40.3h428c22.2,0,40.3,18,40.3,40.3v428
			C954,511.2,936,529.3,913.8,529.3z"/>
		<g>
			<path d="M9.7,567.8v57c0,5.3,0.6,9.9,1.8,13.6c1.2,3.7,3,6.8,5.3,9.2c2.3,2.4,5.2,4.1,8.5,5.2c3.4,1.1,7.1,1.6,11.3,1.6
				c4.3,0,8.1-0.5,11.5-1.6c3.4-1.1,6.2-2.8,8.5-5.2c2.3-2.4,4.1-5.4,5.3-9.2c1.2-3.7,1.8-8.3,1.8-13.6v-57h8.8v58.9
				c0,4.7-0.7,9.2-2,13.5c-1.3,4.3-3.4,8-6.3,11.1c-2.9,3.2-6.6,5.7-11.1,7.5c-4.5,1.8-10,2.8-16.4,2.8c-6.4,0-11.8-0.9-16.3-2.8
				c-4.5-1.8-8.2-4.4-11.1-7.5c-2.9-3.2-5-6.9-6.3-11.1c-1.3-4.3-2-8.7-2-13.5v-58.9H9.7z"/>
			<path d="M104,567.8v49.5l53.5-49.5h11.9l-41.1,38l43.1,54H160l-38.3-48L104,628.2v31.6h-8.8v-92H104z"/>
			<path d="M224.1,567.8l29.9,82.4h0.3l29.6-82.4h9.3l-34.2,92h-10.2l-34-92H224.1z"/>
			<path d="M303.9,637.8c0.8,3.1,2.1,6,3.9,8.4c1.8,2.5,4.1,4.6,6.8,6.2c2.7,1.6,6.1,2.4,9.9,2.4c5.9,0,10.6-1.5,13.9-4.6
				c3.4-3.1,5.7-7.2,7-12.4h8.1c-1.7,7.6-4.9,13.4-9.5,17.5c-4.6,4.1-11.1,6.2-19.5,6.2c-5.2,0-9.8-0.9-13.6-2.8
				c-3.8-1.8-6.9-4.4-9.3-7.6c-2.4-3.2-4.2-7-5.3-11.2c-1.2-4.3-1.7-8.7-1.7-13.5c0-4.4,0.6-8.7,1.7-12.9c1.2-4.2,2.9-8,5.3-11.3
				c2.4-3.3,5.5-6,9.3-8c3.8-2,8.4-3,13.6-3c5.3,0,9.9,1.1,13.7,3.2c3.8,2.1,6.9,5,9.2,8.4c2.4,3.5,4.1,7.5,5.1,12
				c1,4.5,1.5,9.1,1.3,13.7h-51.2C302.6,631.7,303,634.7,303.9,637.8z M344.1,613c-1-2.8-2.4-5.3-4.2-7.5c-1.8-2.2-4-4-6.6-5.3
				c-2.6-1.3-5.5-2-8.8-2c-3.4,0-6.3,0.7-8.9,2c-2.6,1.3-4.8,3.1-6.6,5.3c-1.8,2.2-3.2,4.7-4.3,7.6c-1.1,2.9-1.8,5.8-2.1,8.8h43.1
				C345.6,618.8,345.1,615.8,344.1,613z"/>
			<path d="M377.9,567.8v37h0.3c1.5-4,4.3-7.3,8.2-9.7c4-2.4,8.3-3.7,13-3.7c4.6,0,8.5,0.6,11.7,1.8c3.1,1.2,5.6,2.9,7.5,5.1
				c1.9,2.2,3.2,4.9,4,8.1c0.8,3.2,1.2,6.7,1.2,10.7v42.8h-8.1v-41.5c0-2.8-0.3-5.5-0.8-7.9c-0.5-2.4-1.4-4.6-2.7-6.4
				c-1.3-1.8-3-3.2-5.2-4.3c-2.2-1-4.9-1.5-8.2-1.5c-3.3,0-6.2,0.6-8.7,1.7c-2.5,1.2-4.7,2.8-6.4,4.8c-1.8,2-3.1,4.4-4.1,7.2
				c-1,2.8-1.5,5.8-1.6,9.1v38.8h-8.1v-92H377.9z"/>
			<path d="M452.5,567.8v13h-8.1v-13H452.5z M452.5,593.3v66.5h-8.1v-66.5H452.5z"/>
			<path d="M514,602.4c-3-2.8-7.2-4.3-12.6-4.3c-3.9,0-7.3,0.8-10.2,2.4c-2.9,1.6-5.3,3.8-7.3,6.4c-1.9,2.7-3.4,5.7-4.4,9.1
				c-1,3.4-1.5,6.9-1.5,10.4c0,3.5,0.5,7,1.5,10.4c1,3.4,2.4,6.4,4.4,9.1c1.9,2.7,4.4,4.8,7.3,6.4c2.9,1.6,6.3,2.4,10.2,2.4
				c2.5,0,4.9-0.5,7.1-1.4c2.2-0.9,4.2-2.3,5.9-3.9c1.7-1.7,3.1-3.7,4.3-6c1.1-2.3,1.8-4.9,2.1-7.6h8.1c-1.1,8.1-4.1,14.4-8.9,18.9
				c-4.8,4.5-11,6.8-18.6,6.8c-5.1,0-9.6-0.9-13.5-2.8c-3.9-1.8-7.2-4.4-9.9-7.5c-2.7-3.2-4.7-6.9-6.1-11.1
				c-1.4-4.3-2.1-8.8-2.1-13.6c0-4.8,0.7-9.3,2.1-13.6c1.4-4.3,3.4-8,6.1-11.1c2.7-3.2,5.9-5.7,9.9-7.6c3.9-1.9,8.4-2.8,13.5-2.8
				c7.1,0,13.2,1.9,18.1,5.7c4.9,3.8,7.9,9.5,8.8,17.1h-8.1C519.1,609.2,517,605.3,514,602.4z"/>
			<path d="M553.6,567.8v92h-8.1v-92H553.6z"/>
			<path d="M580.3,637.8c0.8,3.1,2.1,6,3.9,8.4c1.8,2.5,4.1,4.6,6.8,6.2c2.7,1.6,6.1,2.4,9.9,2.4c5.9,0,10.6-1.5,13.9-4.6
				c3.4-3.1,5.7-7.2,7-12.4h8.1c-1.7,7.6-4.9,13.4-9.5,17.5c-4.6,4.1-11.1,6.2-19.5,6.2c-5.2,0-9.8-0.9-13.6-2.8
				c-3.8-1.8-6.9-4.4-9.3-7.6c-2.4-3.2-4.2-7-5.3-11.2s-1.7-8.7-1.7-13.5c0-4.4,0.6-8.7,1.7-12.9c1.2-4.2,2.9-8,5.3-11.3
				c2.4-3.3,5.5-6,9.3-8c3.8-2,8.4-3,13.6-3c5.3,0,9.9,1.1,13.7,3.2c3.8,2.1,6.9,5,9.2,8.4c2.4,3.5,4.1,7.5,5.1,12
				c1,4.5,1.5,9.1,1.3,13.7h-51.2C579.1,631.7,579.5,634.7,580.3,637.8z M620.6,613c-1-2.8-2.4-5.3-4.2-7.5c-1.8-2.2-4-4-6.6-5.3
				c-2.6-1.3-5.5-2-8.8-2c-3.4,0-6.3,0.7-8.9,2c-2.6,1.3-4.8,3.1-6.6,5.3c-1.8,2.2-3.2,4.7-4.3,7.6c-1.1,2.9-1.8,5.8-2.1,8.8h43.1
				C622.1,618.8,621.6,615.8,620.6,613z"/>
			<path d="M720.8,567.8c14,0.3,24.6,4.3,31.6,11.8c7.1,7.5,10.6,18.9,10.6,34.2c0,15.3-3.5,26.7-10.6,34.2
				c-7.1,7.5-17.6,11.5-31.6,11.8h-31.8v-92H720.8z M716.4,652.3c6.6,0,12.3-0.7,17.1-2.1c4.8-1.4,8.7-3.7,11.8-6.8
				c3.1-3.1,5.4-7.1,6.8-12c1.5-4.9,2.2-10.8,2.2-17.7c0-6.9-0.7-12.8-2.2-17.7c-1.5-4.9-3.7-8.9-6.8-12c-3.1-3.1-7-5.3-11.8-6.8
				c-4.8-1.4-10.5-2.1-17.1-2.1h-18.7v77.1H716.4z"/>
			<path d="M785.1,603.6c1.4-2.8,3.2-5.2,5.6-7c2.4-1.8,5.1-3.1,8.3-4c3.2-0.9,6.7-1.3,10.6-1.3c2.9,0,5.8,0.3,8.8,0.8
				c2.9,0.6,5.5,1.6,7.9,3.2c2.3,1.5,4.2,3.7,5.7,6.5c1.5,2.8,2.2,6.4,2.2,10.9v35.3c0,3.3,1.6,4.9,4.8,4.9c0.9,0,1.8-0.2,2.6-0.5
				v6.8c-0.9,0.2-1.8,0.3-2.5,0.4c-0.7,0.1-1.7,0.1-2.8,0.1c-2.1,0-3.7-0.3-5-0.8c-1.2-0.6-2.2-1.4-2.9-2.4c-0.7-1-1.1-2.3-1.4-3.7
				c-0.2-1.4-0.3-3-0.3-4.7h-0.3c-1.5,2.1-2.9,4.1-4.4,5.7c-1.5,1.7-3.2,3.1-5,4.2c-1.8,1.1-4,2-6.3,2.6c-2.4,0.6-5.2,0.9-8.4,0.9
				c-3.1,0-6-0.4-8.7-1.1c-2.7-0.7-5.1-1.9-7.1-3.5c-2-1.6-3.6-3.6-4.8-6.1c-1.2-2.4-1.7-5.3-1.7-8.7c0-4.6,1-8.3,3.1-10.9
				c2.1-2.6,4.8-4.6,8.2-6c3.4-1.4,7.2-2.3,11.5-2.9c4.3-0.6,8.6-1.1,13-1.6c1.7-0.2,3.2-0.4,4.5-0.6c1.3-0.3,2.4-0.7,3.2-1.4
				c0.9-0.6,1.5-1.5,2-2.6c0.5-1.1,0.7-2.6,0.7-4.4c0-2.7-0.5-5-1.4-6.8c-0.9-1.8-2.1-3.2-3.7-4.2c-1.6-1-3.4-1.7-5.5-2.1
				c-2.1-0.4-4.4-0.6-6.8-0.6c-5.2,0-9.4,1.2-12.6,3.7c-3.3,2.4-5,6.4-5.2,11.8h-8.1C782.9,609.8,783.7,606.4,785.1,603.6z
				 M825.7,623.5c-0.5,0.9-1.5,1.6-3,2.1c-1.5,0.4-2.8,0.7-3.9,0.9c-3.4,0.6-7,1.1-10.6,1.6c-3.7,0.5-7,1.2-10,2.1
				c-3,0.9-5.5,2.3-7.4,4.1c-1.9,1.8-2.9,4.3-2.9,7.5c0,2.1,0.4,3.9,1.2,5.5c0.8,1.6,1.9,3,3.3,4.1c1.4,1.2,3,2,4.8,2.6
				c1.8,0.6,3.7,0.9,5.5,0.9c3.1,0,6.1-0.5,8.9-1.4c2.8-0.9,5.3-2.3,7.4-4.1c2.1-1.8,3.8-4,5-6.6c1.2-2.6,1.9-5.5,1.9-8.8v-10.6
				H825.7z"/>
			<path d="M884.5,593.3v6.8h-13.5V645c0,2.7,0.4,4.7,1.1,6.3c0.7,1.5,2.6,2.3,5.5,2.5c2.3,0,4.6-0.1,7-0.4v6.8
				c-1.2,0-2.4,0-3.6,0.1c-1.2,0.1-2.4,0.1-3.6,0.1c-5.4,0-9.2-1.1-11.3-3.2c-2.1-2.1-3.2-6-3.1-11.7v-45.5h-11.6v-6.8h11.6v-20h8.1
				v20H884.5z"/>
			<path d="M905.6,603.6c1.4-2.8,3.2-5.2,5.6-7c2.4-1.8,5.1-3.1,8.3-4c3.2-0.9,6.7-1.3,10.6-1.3c2.9,0,5.8,0.3,8.8,0.8
				c2.9,0.6,5.5,1.6,7.9,3.2c2.3,1.5,4.2,3.7,5.7,6.5c1.5,2.8,2.2,6.4,2.2,10.9v35.3c0,3.3,1.6,4.9,4.8,4.9c0.9,0,1.8-0.2,2.6-0.5
				v6.8c-0.9,0.2-1.8,0.3-2.5,0.4c-0.7,0.1-1.7,0.1-2.8,0.1c-2.1,0-3.7-0.3-5-0.8c-1.2-0.6-2.2-1.4-2.9-2.4c-0.7-1-1.1-2.3-1.4-3.7
				c-0.2-1.4-0.3-3-0.3-4.7h-0.3c-1.5,2.1-2.9,4.1-4.4,5.7c-1.5,1.7-3.2,3.1-5,4.2c-1.8,1.1-4,2-6.3,2.6c-2.4,0.6-5.2,0.9-8.4,0.9
				c-3.1,0-6-0.4-8.7-1.1c-2.7-0.7-5.1-1.9-7.1-3.5c-2-1.6-3.6-3.6-4.8-6.1c-1.2-2.4-1.7-5.3-1.7-8.7c0-4.6,1-8.3,3.1-10.9
				c2.1-2.6,4.8-4.6,8.2-6c3.4-1.4,7.2-2.3,11.5-2.9c4.3-0.6,8.6-1.1,13-1.6c1.7-0.2,3.2-0.4,4.5-0.6c1.3-0.3,2.4-0.7,3.2-1.4
				c0.9-0.6,1.5-1.5,2-2.6c0.5-1.1,0.7-2.6,0.7-4.4c0-2.7-0.5-5-1.4-6.8c-0.9-1.8-2.1-3.2-3.7-4.2c-1.6-1-3.4-1.7-5.5-2.1
				c-2.1-0.4-4.4-0.6-6.8-0.6c-5.2,0-9.4,1.2-12.6,3.7c-3.3,2.4-5,6.4-5.2,11.8h-8.1C903.4,609.8,904.2,606.4,905.6,603.6z
				 M946.2,623.5c-0.5,0.9-1.5,1.6-3,2.1c-1.5,0.4-2.8,0.7-3.9,0.9c-3.4,0.6-7,1.1-10.6,1.6c-3.7,0.5-7,1.2-10,2.1
				c-3,0.9-5.5,2.3-7.4,4.1c-1.9,1.8-2.9,4.3-2.9,7.5c0,2.1,0.4,3.9,1.2,5.5c0.8,1.6,1.9,3,3.3,4.1c1.4,1.2,3,2,4.8,2.6
				c1.8,0.6,3.7,0.9,5.5,0.9c3.1,0,6.1-0.5,8.9-1.4c2.8-0.9,5.3-2.3,7.4-4.1c2.1-1.8,3.8-4,5-6.6c1.2-2.6,1.9-5.5,1.9-8.8v-10.6
				H946.2z"/>
		</g>
		<g>
			<path class="st1" d="M14.9,224.4v145.4c0,4.8,0.2,10.3,0.7,16.6c0.5,6.3,1.6,12.9,3.4,19.5c1.8,6.7,4.4,13.3,7.6,19.7
				c3.3,6.5,7.8,12.2,13.4,17.3c5.7,5.1,12.6,9.2,20.9,12.2c8.3,3.1,18.3,4.6,30.1,4.6c14.9,0,27.5-2.1,37.5-6.3
				c10.1-4.2,18.2-10.2,24.5-18c6.2-7.8,10.7-17.3,13.4-28.4c2.7-11.1,4.1-23.6,4.1-37.4V224.4h14.9v145.4c0,14.5-1.5,28-4.6,40.4
				c-3.1,12.5-8.2,23.3-15.5,32.6c-7.3,9.3-16.9,16.6-29.1,21.9c-12.1,5.3-27.2,8-45.4,8c-14.3,0-26.5-1.8-36.7-5.4
				s-18.6-8.3-25.3-14.1c-6.7-5.8-12-12.4-15.8-19.9c-3.9-7.5-6.8-15-8.8-22.6c-2-7.6-3.3-14.9-3.7-22.1C0.2,381.5,0,375.2,0,369.8
				V224.4H14.9z"/>
			<path class="st1" d="M207.9,224.4h14.9V364l152.6-139.6h19.4L284,325.3L401.6,467h-18.7L273.2,335.5l-50.3,45.9V467h-14.9V224.4z
				"/>
			<path class="st2" d="M559.3,467l-78.5-242.6h54.7l54,170.6h0.7l54.7-170.6h55L619.4,467H559.3z"/>
			<path class="st2" d="M818.5,224.4c15.6,0,30.2,2.5,43.7,7.5c13.5,5,25.1,12.5,35,22.4c9.9,10,17.6,22.4,23.1,37.4
				c5.5,15,8.3,32.5,8.3,52.7c0,17.7-2.3,34-6.8,48.9c-4.5,15-11.4,27.9-20.6,38.7c-9.2,10.9-20.6,19.4-34.3,25.7
				c-13.7,6.2-29.8,9.3-48.4,9.3H713.9V224.4H818.5z M814.8,422.1c7.7,0,15.2-1.2,22.4-3.7c7.2-2.5,13.7-6.6,19.4-12.4
				c5.7-5.8,10.2-13.3,13.6-22.6c3.4-9.3,5.1-20.6,5.1-34c0-12.2-1.2-23.3-3.6-33.1c-2.4-9.9-6.3-18.3-11.7-25.3
				c-5.4-7-12.6-12.4-21.6-16.1c-9-3.7-20-5.6-33.1-5.6h-38.1v152.9H814.8z"/>
		</g>
		<g>
			<path class="st3" d="M958.2,13c1.2-2.6,2.7-4.9,4.7-6.8c2-1.9,4.3-3.4,6.9-4.5c2.6-1.1,5.4-1.6,8.4-1.6s5.8,0.6,8.4,1.6
				c2.6,1.1,4.9,2.6,6.9,4.5c2,1.9,3.5,4.2,4.7,6.8c1.2,2.6,1.7,5.5,1.7,8.5c0,3.1-0.6,6-1.7,8.7c-1.2,2.6-2.7,4.9-4.7,6.9
				c-2,1.9-4.3,3.5-6.9,4.5c-2.6,1.1-5.4,1.6-8.4,1.6s-5.8-0.5-8.4-1.6c-2.6-1.1-5-2.6-6.9-4.5c-2-1.9-3.6-4.2-4.7-6.9
				c-1.2-2.6-1.7-5.5-1.7-8.7C956.5,18.5,957.1,15.6,958.2,13z M961.8,28.9c0.9,2.3,2.2,4.2,3.8,5.9c1.6,1.7,3.5,3,5.7,3.9
				c2.2,0.9,4.5,1.4,7.1,1.4c2.5,0,4.8-0.5,7-1.4c2.2-0.9,4-2.2,5.6-3.9c1.6-1.7,2.9-3.6,3.8-5.9c0.9-2.3,1.4-4.7,1.4-7.4
				c0-2.6-0.5-5-1.4-7.2c-0.9-2.2-2.2-4.2-3.8-5.8c-1.6-1.6-3.5-2.9-5.6-3.9c-2.2-0.9-4.5-1.4-7-1.4c-2.5,0-4.9,0.5-7.1,1.4
				c-2.2,0.9-4.1,2.2-5.7,3.9c-1.6,1.6-2.9,3.6-3.8,5.8c-0.9,2.2-1.4,4.6-1.4,7.2C960.4,24.2,960.9,26.6,961.8,28.9z M979.6,9
				c3,0,5.2,0.6,6.7,1.8c1.4,1.2,2.2,3,2.2,5.4c0,2.3-0.6,3.9-1.9,5c-1.3,1.1-2.9,1.7-4.7,1.9l7.2,11.2h-4.2L978,23.4h-4.2v10.9
				h-3.9V9H979.6z M977.9,20.2c0.9,0,1.7,0,2.5-0.1c0.8-0.1,1.5-0.2,2.1-0.5c0.6-0.3,1.1-0.7,1.5-1.2c0.4-0.6,0.5-1.3,0.5-2.3
				c0-0.8-0.2-1.5-0.5-2c-0.3-0.5-0.8-0.9-1.3-1.2c-0.5-0.3-1.1-0.5-1.8-0.5c-0.7-0.1-1.3-0.1-2-0.1h-5.2v8H977.9z"/>
		</g>
	</g>
</g>
</svg>
