<?xml version="1.0" encoding="UTF-8"?>
<svg id="katman_1" data-name="katman 1" xmlns="http://www.w3.org/2000/svg" viewBox="0 0 512 121.04">
  <path d="M482.09,15.91c1.31,0,2.33,.95,2.33,2.18v13.97h25.25c1.31,0,2.33,.95,2.33,2.18v7.2c0,1.16-1.02,2.18-2.33,2.26h-25.25v21.25c0,8.88,3.2,12.45,12.23,12.45h11.35c1.31,0,2.33,.95,2.33,2.18v7.2c0,1.16-1.02,2.18-2.33,2.18h-13.53c-16.6,0-24.31-7.57-24.31-23.94v-21.4h-14.92c-1.31,0-2.33-.95-2.33-2.18v-7.2c0-1.16,1.02-2.18,2.33-2.18h14.92v-13.97c0-1.16,1.02-2.18,2.33-2.18h9.6Zm-46.58,16.16c1.31,0,2.33,.95,2.33,2.18v43.16h17.83c1.31,0,2.33,.95,2.33,2.18v7.2c0,1.16-1.02,2.18-2.33,2.18h-49.49c-1.31,0-2.33-.95-2.33-2.18v-7.2c0-1.16,1.02-2.18,2.33-2.18h17.39V43.64h-17.39c-1.31,0-2.33-.95-2.33-2.18v-7.2c0-1.16,1.02-2.18,2.33-2.18h29.33Zm.58-21.99c1.24,0,2.26,.95,2.33,2.18v9.24c0,1.16-1.02,2.18-2.33,2.18h-13.1c-1.31,0-2.33-.95-2.33-2.18V12.27c0-1.16,1.02-2.18,2.33-2.18h13.1Zm-43.23,67.32h-14.85V12.27c0-1.24-1.02-2.18-2.33-2.18h-29.11c-1.31,0-2.33,1.02-2.33,2.18v7.21c0,1.24,1.02,2.18,2.33,2.18h17.18v55.75h-19.29c-1.31,0-2.33,1.02-2.33,2.18v7.2c0,1.24,1.02,2.18,2.33,2.18h48.4c1.31,0,2.33-1.02,2.33-2.18v-7.2c0-1.24-1.02-2.18-2.33-2.18Zm-79.04-46.44c-4.95,0-8.52,1.09-11.28,3.71l-3.42,3.28h-3.13l-1.16-4.22c-.29-.95-1.16-1.67-2.26-1.67h-6.55c-1.31,0-2.33,1.02-2.33,2.18V108.78c0,1.24,1.02,2.18,2.33,2.18h9.61c1.31,0,2.33-1.02,2.33-2.18v-16.16l-1.24-8.66,3.2-.73,3.42,3.27c2.69,2.47,5.97,3.71,10.84,3.71,14.12,0,22.63-9.75,22.63-29.62-.06-19.86-8.5-29.62-22.99-29.62Zm-4.73,47.31c-7.21,0-11.21-3.71-11.21-10.77v-13.97c0-7.06,3.93-10.77,11.21-10.77,8.81,0,12.81,5.53,12.81,17.69-.07,12.29-4,17.82-12.81,17.82ZM243.01,30.97c-18.34,0-28.17,9.75-28.17,29.55s9.75,29.62,27.8,29.62c13.97,0,23-5.82,25.4-15.79,.36-1.38-.8-2.69-2.26-2.69h-8.73c-.95,0-1.82,.58-2.18,1.46-1.53,4.29-5.89,6.33-11.79,6.33-9.17,0-13.54-5.02-14.12-16.74h39.81c2.19-21.91-6.91-31.74-25.76-31.74Zm-13.61,22.86c1.38-8.59,5.68-12.59,13.54-12.59,8.37,0,12.3,4.44,12.52,12.59h-26.06Zm-42.94-19.22l-3.28,3.28h-3.27l-1.02-4.15c-.22-1.02-1.16-1.67-2.26-1.67h-20.96c-1.31,0-2.33,1.02-2.33,2.18v7.2c0,1.24,1.02,2.18,2.33,2.18h12.37v33.77h-14.41c-1.31,0-2.33,1.02-2.33,2.18v7.2c0,1.24,1.02,2.18,2.33,2.18h45.34c1.31,0,2.33-1.02,2.33-2.18v-7.2c0-1.24-1.02-2.18-2.33-2.18h-16.67v-23.87c0-6.7,3.93-10.19,11.64-10.19h12.52c1.31,0,2.33-1.02,2.33-2.18v-7.93c0-1.24-1.02-2.18-2.33-2.18h-7.42c-5.45-.08-9.74,.94-12.58,3.56Z"/>
  <path d="M0,7.57C0,3.39,3.39,0,7.57,0H42.88c4.18,0,7.57,3.39,7.57,7.57V40.35H7.57c-4.18,0-7.57-3.39-7.57-7.57V7.57ZM50.44,40.35h42.87c4.18,0,7.57,3.39,7.57,7.57v25.22c0,4.18-3.39,7.57-7.57,7.57H50.44V40.35ZM0,88.26c0-4.18,3.39-7.57,7.57-7.57H50.44v32.78c0,4.18-3.39,7.57-7.57,7.57H7.57c-4.18,0-7.57-3.39-7.57-7.57v-25.21Z" style="fill: #f26207;"/>
</svg>